<?xml version="1.0" standalone="no"?><!DOCTYPE svg PUBLIC "-//W3C//DTD SVG 1.1//EN" "http://www.w3.org/Graphics/SVG/1.1/DTD/svg11.dtd"><svg t="1680623817833" class="icon" viewBox="0 0 1024 1024" version="1.1" xmlns="http://www.w3.org/2000/svg" p-id="2100" xmlns:xlink="http://www.w3.org/1999/xlink" width="200" height="200"><path d="M747.093333 278.826667c-0.085333 0.128-10.538667 10.922667-16.512 17.408-15.616 16.938667-39.253333 41.6-55.978666 47.786666h-0.170667a97.28 97.28 0 0 0-6.784-2.133333l30.037333-60.8-0.341333 0.512c-0.938667 1.834667-30.677333 60.373333-71.082667 51.968l-0.085333 0.085333c-0.597333-0.128-1.109333 0.085333-1.706667-0.085333 19.413333-24.746667 26.88-47.488 26.88-47.488s-32.256 51.754667-72.106666 37.76a3.2 3.2 0 0 1-2.090667-2.005333 6.528 6.528 0 0 1 0-3.413334c0.426667-1.749333 1.706667-3.925333 2.858667-5.973333 4.053333-7.509333 10.922667-15.701333 10.922666-15.701333s-6.656 6.485333-15.616 12.586666l-0.085333 0.085334c-6.698667 4.565333-14.72 8.874667-22.186667 10.069333a21.845333 21.845333 0 0 1-7.125333 0c-9.130667-1.578667-8.874667-10.666667-6.357333-19.413333v-0.085334c2.56-8.704 7.424-17.066667 7.424-17.066666s-8.106667 12.714667-16.981334 25.088c-6.826667 9.514667-13.269333 16.896-17.749333 20.224l-5.12 0.170666c-2.688-7.509333 4.266667-32.256 4.266667-32.426666a212.608 212.608 0 0 1-13.397334 19.029333 73.813333 73.813333 0 0 1-14.506666 14.336h-1.152c-3.498667 0.298667-6.826667 0.853333-10.197334 1.322667a8.874667 8.874667 0 0 1-2.730666-5.333334c-1.792-11.434667 5.248-32.256 5.333333-32.512-0.085333 0.256-3.84 11.093333-8.96 21.418667v0.170667c-1.365333 2.858667-2.986667 5.12-4.565333 7.594666-3.669333 5.802667-7.509333 10.410667-11.136 9.344-5.418667-1.621333-8.618667-8.618667-10.496-15.189333-1.877333-6.570667-2.432-12.757333-2.432-12.757333s-1.322667 10.709333-4.992 20.693333a34.090667 34.090667 0 0 1-6.186667 11.306667c-1.024 1.152-2.432 1.536-3.669333 2.346666a535.466667 535.466667 0 0 0-111.658667 32.597334c-9.514667 3.498667-19.029333 6.741333-28.757333 10.922666-32 13.653333-65.237333 30.976-99.968 53.248a910.08 910.08 0 0 0-109.226667 82.986667c-19.114667 16.768-38.656 34.986667-58.709333 55.04 151.808-81.792 212.053333-202.368 496.341333-213.12 215.210667-8.149333 315.733333 91.178667 348.928 92.586667 83.456 3.541333 138.965333-59.733333 156.672-83.029334 4.778667-6.058667 7.637333-10.112 7.808-10.410666-0.426667 0.469333-13.994667 15.914667-33.322667 30.762666l-0.256 0.170667c-19.626667 14.976-44.8 29.013333-67.242666 25.6h-0.085334c-2.901333-0.426667-5.888-0.298667-8.661333-1.365333 31.701333-18.517333 52.736-50.773333 63.232-68.053334 3.242667-5.333333 9.941333-15.36 9.941333-15.36S912.853333 406.613333 857.344 401.493333l-0.085333 0.085334c-2.176-0.213333-4.48 0.298667-6.613334-0.170667 24.192-19.029333 42.026667-44.544 54.528-66.133333v-0.128h0.085334c13.525333-23.381333 20.565333-42.026667 20.650666-42.325334-0.213333 0.341333-13.909333 21.248-32.682666 44.245334l-0.426667 0.426666c-18.773333 23.04-42.581333 47.829333-62.464 55.424-2.986667 1.109333-5.973333 2.816-8.746667 3.072 46.293333-40.917333 65.664-99.072 65.664-99.072s-46.805333 68.053333-86.442666 80.597334c-2.389333 0.725333-4.864 2.005333-7.253334 2.304 24.234667-21.845333 37.077333-39.253333 45.098667-52.906667V326.826667c10.154667-17.237333 11.989333-27.733333 11.989333-27.733334l-0.170666 0.170667a400.170667 400.170667 0 0 1-11.562667 14.250667l-0.682667 0.725333c-10.88 12.8-27.52 31.274667-44.586666 45.994667l-0.213334 0.170666a176.938667 176.938667 0 0 1-13.653333 10.581334c-1.28 0.896-2.56 1.962667-3.797333 2.773333a72.533333 72.533333 0 0 1-11.648 5.888c-0.938667 0.426667-1.877333 0.938667-2.773334 1.28-2.901333-1.92-5.632-3.925333-8.746666-5.76-1.962667 2.56-4.096 4.992-6.058667 7.509333H746.666667c-0.853333-0.256-1.877333-0.256-2.688-0.682666 36.608-39.850667 61.44-90.410667 61.44-90.410667l-0.170667 0.170667c-0.341333 0.426667-50.901333 68.693333-73.813333 72.96-2.986667-1.493333-5.973333-2.986667-9.173334-4.394667a21.333333 21.333333 0 0 1 1.877334-6.912c5.205333-12.117333 19.84-30.592 19.84-30.592s-3.968 2.986667-5.248 4.096a181.333333 181.333333 0 0 1-12.970667 10.154667c-2.389333 1.706667-4.864 3.072-7.338667 4.608-2.730667 1.706667-5.418667 3.242667-8.021333 4.48a30.293333 30.293333 0 0 1-11.221333 3.669333c-1.834667 0-3.498667-0.213333-4.693334-1.152 19.328-11.818667 52.394667-69.461333 52.608-69.845333z m-204.373333 92.416a643.456 643.456 0 0 0-38.954667 0.256c-12.202667 0.426667-23.466667 1.408-34.858666 2.261333l-0.085334 0.085333c-11.946667 5.248-23.338667 11.434667-33.408 19.584a18.218667 18.218667 0 0 1 1.493334 7.168 18.389333 18.389333 0 0 1-2.005334 8.106667l37.76 27.392 0.938667-0.597333-15.36-53.930667 26.581333 47.530667c0.853333-0.341333 1.792-0.597333 2.688-0.853334l-0.853333-52.736 16.938667 49.578667 20.309333-49.024 0.768 54.101333c0.170667 0.085333 0.298667 0.256 0.512 0.341334l30.378667-42.922667-15.488 52.010667 0.341333 0.426666 44.416-29.525333-32.341333 44.8v0.298667l40.533333-14.506667c0.554667-0.725333 1.28-1.28 1.792-2.005333a16.810667 16.810667 0 0 1 16.853333-26.88c5.077333-10.453333 8.917333-21.504 11.434667-32.853334a561.066667 561.066667 0 0 0-80.341333-8.106666z m-106.965333 5.674666l-0.853334 0.085334c-13.141333 1.536-25.856 3.328-38.058666 5.333333-12.245333 2.005333-23.978667 4.266667-35.157334 6.826667l-0.597333 0.085333c4.906667 16.554667 12.544 32.256 22.656 46.08 4.608-10.197333 10.410667-19.669333 17.152-28.245333a18.602667 18.602667 0 0 1 24.277333-23.765334c3.285333-2.474667 7.082667-4.224 10.581334-6.4z m190.293333 3.925334a135.808 135.808 0 0 1-6.954667 35.242666 16.810667 16.810667 0 0 1-13.994666 29.013334 135.296 135.296 0 0 1-23.466667 26.88l28.202667 1.450666-42.410667 10.069334c-1.109333 0.768-1.962667 1.792-3.072 2.517333a136.277333 136.277333 0 0 1 65.578667 29.482667c13.653333-24.490667 21.504-52.693333 21.504-82.773334 0-22.826667-10.112-39.594667-25.344-51.882666z m-269.568 9.642666c-12.629333 2.986667-24.746667 6.272-36.266667 9.813334a62.378667 62.378667 0 0 0-9.045333 32.426666c0 69.205333 41.301333 128.682667 100.565333 155.306667l0.085334-0.512a136.405333 136.405333 0 0 1-24.746667-33.706667 24.405333 24.405333 0 0 1-14.336-45.994666 135.68 135.68 0 0 1 5.930667-59.306667 134.826667 134.826667 0 0 1-22.186667-58.026667z m325.589333 1.109334c5.973333 17.493333 9.6 35.925333 9.6 55.168 0 104.106667-93.994667 188.501333-209.92 188.501333s-209.92-84.437333-209.92-188.501333c0-10.069333 0.981333-19.968 2.688-29.610667-33.152 13.952-61.866667 30.122667-88.533333 47.445333-9.130667 16.554667-13.568 33.834667-12.074667 51.2 3.626667 42.026667 40.576 77.098667 97.024 100.864l-10.922666-2.901333c-97.706667-27.562667-175.232 21.461333-260.010667-21.077333 19.626667 15.530667 41.984 30.592 106.581333 30.805333 21.888 0.085333 92.074667-3.413333 105.002667 7.936 12.928 11.306667-43.562667 64.597333-43.562667 64.597333s95.573333-80.938667 104.874667-53.333333c5.845333 17.152-27.392 62.976-27.392 62.976s33.408-45.226667 58.154667-54.912c17.066667-6.656 31.36-5.802667 43.605333 11.349333 8.106667 11.306667-38.784 66.218667-38.784 66.218667s62.976-61.397333 74.24-58.154667c11.349333 3.242667 0 58.154667 0 58.154667s23.253333-55.722667 35.626667-59.818667c16.938667-5.674667-38.784 129.28-38.784 129.28s68.053333-124.8 80.768-127.616c21.76-4.864 36.352 87.168 36.352 87.168s-10.624-80.426667 0.853333-85.589333c72.277333-32.725333 30.634667 138.922667 30.634667 138.922667s47.317333-116.48 18.261333-142.336C623.146667 719.189333 613.76 810.666667 613.76 810.666667s20.138667-43.52-36.437333-150.613334c30.72-1.578667 76.8 79.530667 76.8 79.530667s-50.048-88.789333-16.128-90.453333c67.413333-3.157333 74.24 117.973333 74.24 117.973333s20.224-16.981333-33.92-135.68c34.474667-22.101333 117.930667 109.824 117.930666 109.824s-76.970667-128.725333-64.597333-137.344c12.373333-8.618667 57.6 40.96 57.6 40.96s-34.474667-47.36-25.344-52.181333c9.173333-4.864 100.778667 94.165333 100.778667 94.165333s-80.853333-96.896-66.858667-108.8c13.994667-11.818667 73.258667 33.450667 73.258667 33.450667s-91.050667-59.733333-73.258667-68.992c24.746667-12.842667 95.36 30.72 95.36 30.72s-42.496-34.986667-35.498667-43.52c6.997333-8.661333 90.410667 54.869333 90.410667 54.869333s-73.728-58.197333-77.525333-72.746667c-3.754667-14.506667 58.112 4.906667 58.112 4.906667s-68.352-31.744-69.418667-40.917333c-1.109333-9.130667 45.226667 10.197333 45.226667 10.197333s-63.573333-52.224-79.146667-9.685333c-3.584 6.784-7.978667 12.8-12.074667 19.2 3.968-11.52 5.76-23.168 4.693334-34.986667a79.786667 79.786667 0 0 0-2.218667-11.946667c-29.141333-15.658667-72.576-39.808-133.674667-57.002666z m-248.746666 19.413333a18.218667 18.218667 0 0 1-21.674667 6.997333c-2.304 3.114667-4.266667 6.485333-6.314667 9.813334l54.485334 20.096c0.469333-0.597333 0.853333-1.28 1.365333-1.834667z m-28.074667 16.896a122.026667 122.026667 0 0 0-10.410667 20.864c5.12 5.461333 11.093333 10.026667 16.896 14.634667l39.338667-1.237334 0.085333-0.170666z m178.602667 23.082667l-25.856 19.754666 2.261333 0.085334c8.576-5.632 16.341333-12.373333 23.594667-19.84z m-193.450667 12.416c-0.085333 0.512-0.298667 0.981333-0.426667 1.493333a122.88 122.88 0 0 0-2.048 40.874667 24.192 24.192 0 0 1 19.242667 20.224l39.978667-25.642667c-3.626667-1.28-7.253333-2.56-10.709334-4.096l-44.842666-3.242667 27.221333-5.930666a136.448 136.448 0 0 1-28.416-23.68z m33.834667 9.002666c5.888 3.669333 11.946667 6.826667 18.346666 9.514667l4.906667-1.024c0-0.810667 0.213333-1.578667 0.256-2.389333z m133.12 29.013334l39.082666 38.4-51.114666-19.882667 29.994666 45.994667-45.738666-35.498667-0.512 0.256 14.762666 54.570667-25.429333-48.426667-4.138667 56.746667-17.194666-56.576-20.053334 53.845333 4.821334-58.026667-0.682667-0.298666-34.645333 49.152 12.672-47.36a140.714667 140.714667 0 0 0-33.834667 50.773333c4.053333 4.352 8.362667 8.448 12.885333 12.330667a169.984 169.984 0 0 0 185.685334-72.021334 144.981333 144.981333 0 0 0-53.76-22.997333z m-103.936 9.514666l-45.994667 16.64c0.042667 0.768 0.426667 1.408 0.426667 2.176a24.32 24.32 0 0 1-7.850667 17.92c4.352 9.258667 9.728 18.048 16 26.24a136.533333 136.533333 0 0 1 13.653333-27.093333l-12.586666 10.197333z m155.008 119.04c-7.936 2.090667-15.786667 4.138667-23.893334 5.845334 8.192-1.706667 15.957333-3.84 23.893334-5.802667zM562.005333 640c-4.864 0.853333-9.6 1.962667-14.506666 2.688-8.618667 1.237333-16.682667 1.792-25.002667 2.645333 13.44-1.408 26.624-3.157333 39.509333-5.333333z m-57.6 7.253333c-4.693333 0.341333-9.173333 0.298667-13.824 0.512 4.693333-0.298667 9.130667-0.128 13.824-0.512z" p-id="2101" fill="#1296db"></path></svg>