<?xml version="1.0" standalone="no"?><!DOCTYPE svg PUBLIC "-//W3C//DTD SVG 1.1//EN" "http://www.w3.org/Graphics/SVG/1.1/DTD/svg11.dtd"><svg t="1679676262347" class="icon" viewBox="0 0 1024 1024" version="1.1" xmlns="http://www.w3.org/2000/svg" p-id="18589" xmlns:xlink="http://www.w3.org/1999/xlink" width="200" height="200"><path d="M741.76 358.4h33.578667a38.4 38.4 0 0 1 34.944 22.4l40.917333 132.096v270.037333a38.4 38.4 0 0 1-38.4 38.4H217.6a38.4 38.4 0 0 1-38.4-38.4v-269.013333l40.96-132.992a38.4 38.4 0 0 1 34.986667-22.528h33.493333a32.128 32.128 0 0 1-0.64-6.4V192a32 32 0 0 1 64 0v160a32 32 0 0 1-0.64 6.4h327.68a32.128 32.128 0 0 1-0.64-6.4V192a32 32 0 1 1 64 0v160a32 32 0 0 1-0.64 6.4zM273.450667 425.941333l-19.2 81.066667a6.4 6.4 0 0 0 5.717333 9.258667h511.573333a6.4 6.4 0 0 0 6.016-8.661334l-14.421333-81.066666a6.4 6.4 0 0 0-5.973333-4.138667H279.168a6.4 6.4 0 0 0-5.717333 3.541333z m347.349333 221.525334c0 15.914667 12.885333 28.8 28.8 28.8h70.4a28.8 28.8 0 0 0 0-57.6h-70.4a28.8 28.8 0 0 0-28.8 28.8z m-102.4 0c0 15.914667 12.885333 28.8 28.8 28.8h12.8a28.8 28.8 0 0 0 0-57.6h-12.8a28.8 28.8 0 0 0-28.8 28.8z m-102.4 0c0 15.914667 12.885333 28.8 28.8 28.8h12.8a28.8 28.8 0 0 0 0-57.6h-12.8a28.8 28.8 0 0 0-28.8 28.8z" fill="#1afa29" p-id="18590"></path></svg>