<?xml version="1.0" standalone="no"?><!DOCTYPE svg PUBLIC "-//W3C//DTD SVG 1.1//EN" "http://www.w3.org/Graphics/SVG/1.1/DTD/svg11.dtd"><svg t="1679676117568" class="icon" viewBox="0 0 1024 1024" version="1.1" xmlns="http://www.w3.org/2000/svg" p-id="12563" xmlns:xlink="http://www.w3.org/1999/xlink" width="200" height="200"><path d="M361 749.08a24 24 0 0 1-16.96-40.96l77.32-77.32L348 557.48c-9.36-9.36-9.36-24.56 0-33.96 9.36-9.36 24.56-9.36 33.96 0l90.32 90.32a23.948 23.948 0 0 1 0 33.92L378 742.04a23.888 23.888 0 0 1-17 7.04zM235.8 351.44c15.32 0 30.6-15.32 30.6-30.6 0-15.32-15.32-30.6-30.6-30.6-15.32 0-30.6 15.32-30.6 30.6 0 15.28 15.28 30.6 30.6 30.6z m0 0M337.32 351.44c15.32 0 30.6-15.32 30.6-30.6 0-15.32-15.32-30.6-30.6-30.6-15.32 0-30.6 15.32-30.6 30.6-0.04 15.28 15.28 30.6 30.6 30.6z m0 0M438.8 351.44c15.32 0 30.6-15.32 30.6-30.6 0-15.32-15.32-30.6-30.6-30.6-15.32 0-30.6 15.32-30.6 30.6 0 15.28 15.32 30.6 30.6 30.6z m0 0M650.36 749.08h-129.12c-13.24 0-24-10.76-24-24s10.76-24 24-24h129.12c13.24 0 24 10.76 24 24s-10.76 24-24 24z" fill="#d81e06" p-id="12564"></path><path d="M894.28 890.52H126.64c-13.24 0-24-10.76-24-24V398.92c0-13.24 10.76-24 24-24h767.64c13.24 0 24 10.76 24 24v467.6c0 13.24-10.72 24-24 24z m-743.64-48h719.64v-419.6H150.64v419.6z" fill="#d81e06" p-id="12565"></path><path d="M894.28 425.52H126.64c-13.24 0-24-10.76-24-24V240.16c0-13.24 10.76-24 24-24h767.64c13.24 0 24 10.76 24 24v161.36c0 13.24-10.72 24-24 24z m-743.64-48h719.64V264.16H150.64v113.36z" fill="#d81e06" p-id="12566"></path></svg>