<?xml version="1.0" standalone="no"?><!DOCTYPE svg PUBLIC "-//W3C//DTD SVG 1.1//EN" "http://www.w3.org/Graphics/SVG/1.1/DTD/svg11.dtd"><svg t="1680623680182" class="icon" viewBox="0 0 1024 1024" version="1.1" xmlns="http://www.w3.org/2000/svg" p-id="1825" xmlns:xlink="http://www.w3.org/1999/xlink" width="200" height="200"><path d="M513.0752 510.8224m-450.816 0a450.816 450.816 0 1 0 901.632 0 450.816 450.816 0 1 0-901.632 0Z" fill="#FFBC42" p-id="1826"></path><path d="M863.0784 503.7056c0-52.7872-56.3712-67.0208-86.016-77.1072-29.6448-10.0864-176.0768-64.2048-176.0768-64.2048s-100.1472-163.328-190.0032-101.888c-21.8112 13.7728-18.2272 63.6416 12.032 84.5312-41.8304-7.5776-110.7968 7.9872-107.264 47.616 3.584 39.6288 58.3168 60.0576 155.2896 43.6224 16.896-3.584 40.4992 8.9088 12.032 32.9216-15.1552 10.7008-80.9984 28.928-225.1776 3.1232-102.6048-18.3808-162.816-32.2048-189.0304-38.7072a451.6864 451.6864 0 0 0-6.6048 77.2608c0 149.504 72.8064 282.0096 184.8832 364.032 22.016-6.5536 45.0048-15.104 68.608-26.112 60.5184-28.4672 42.7008-57.856 28.4672-68.096s-42.7008-50.7392 36.9152-98.3552 178.7392-90.1632 296.8064-105.0112c37.9904-5.3248 83.6608-5.9392 105.6256-7.1168 21.9648-1.2288 79.5136-13.6704 79.5136-66.5088z m-260.5056-41.8304c-15.872 0-28.7744-12.9024-28.7744-28.7744s12.9024-28.7744 28.7744-28.7744 28.7744 12.9024 28.7744 28.7744-12.8512 28.7744-28.7744 28.7744z" fill="#FFFFFF" p-id="1827"></path></svg>